<svg width="500" height="456" viewBox="0 0 500 456" fill="none" xmlns="http://www.w3.org/2000/svg">
<path opacity="0.43" d="M357.292 399.458C392.531 399.458 421.098 396.447 421.098 392.731C421.098 389.016 392.531 386.004 357.292 386.004C322.054 386.004 293.487 389.016 293.487 392.731C293.487 396.447 322.054 399.458 357.292 399.458Z" fill="#1A1E29"/>
<path opacity="0.43" d="M158.791 361.899C194.03 361.899 222.596 358.887 222.596 355.172C222.596 351.457 194.03 348.445 158.791 348.445C123.553 348.445 94.9862 351.457 94.9862 355.172C94.9862 358.887 123.553 361.899 158.791 361.899Z" fill="#1A1E29"/>
<g style="mix-blend-mode:multiply" opacity="0.34">
<path d="M278.318 341.927C278.318 341.927 256.264 329.867 260.281 316.532C262.703 308.487 274.672 312.056 275.532 320.094C276.392 328.131 281.504 343.67 281.504 343.67L278.318 341.927Z" fill="#CDD6D9"/>
</g>
<g style="mix-blend-mode:multiply" opacity="0.34">
<path d="M288.459 351.561C288.459 351.561 310.211 344.046 308.58 331.345C307.597 323.677 296.198 325.071 294.244 332.223C292.29 339.376 285.301 352.627 285.301 352.627L288.459 351.561Z" fill="#CDD6D9"/>
</g>
<g style="mix-blend-mode:multiply" opacity="0.34">
<path d="M286.931 317.082C286.931 317.082 309.908 316.685 312.192 304.109C313.568 296.525 300.263 294.427 296.211 300.624C292.16 306.821 283.609 317.152 283.609 317.152L286.931 317.082Z" fill="#CDD6D9"/>
</g>
<g style="mix-blend-mode:multiply" opacity="0.34">
<path d="M332.568 234.274C332.334 234.839 357.052 240.778 362.053 232.043C367.054 223.309 358.166 212.922 342.653 223.072C342.653 223.072 335.045 228.335 332.568 234.274Z" fill="#CDD6D9"/>
</g>
<g style="mix-blend-mode:multiply" opacity="0.34">
<path d="M306.881 256.532C306.881 256.532 321.39 264.967 332.699 257.229C344.009 249.492 326.604 236.749 308.904 254.065L306.881 256.532Z" fill="#CDD6D9"/>
</g>
<g style="mix-blend-mode:multiply" opacity="0.34">
<path d="M291.499 285.371C291.499 285.371 306.007 293.799 317.324 286.068C328.64 278.338 311.229 265.595 293.522 282.904L291.499 285.371Z" fill="#CDD6D9"/>
</g>
<g style="mix-blend-mode:multiply" opacity="0.34">
<path d="M298.2 267.895C298.2 267.895 285.384 257.006 288.624 243.58C291.864 230.154 309.695 242.312 299.775 265.121L298.2 267.895Z" fill="#CDD6D9"/>
</g>
<g style="mix-blend-mode:multiply" opacity="0.34">
<path d="M322.827 238.868C322.827 238.868 310.445 216.365 319.876 206.362C329.053 196.603 341.8 218.359 325.194 236.756L322.827 238.868Z" fill="#CDD6D9"/>
</g>
<g style="mix-blend-mode:multiply" opacity="0.34">
<path d="M279.742 302.143C279.742 302.143 262.166 287.623 266.981 275.8C269.884 268.669 281.49 271.485 281.593 278.902C281.696 286.319 284.345 306.64 284.345 306.64L279.742 302.143Z" fill="#CDD6D9"/>
</g>
<g opacity="0.9">
<g style="mix-blend-mode:multiply" opacity="0.34">
<path d="M247.376 292.781C247.376 292.781 268.66 273.165 260.549 259.425C255.651 251.137 243.289 258.47 244.521 267.672C245.752 276.874 244.294 295.619 244.294 295.619L247.376 292.781Z" fill="#CDD6D9"/>
</g>
<g style="mix-blend-mode:multiply">
<path d="M232.798 247.54C232.798 247.54 250.554 227.749 241.969 215.919C236.788 208.788 226.146 216.575 228.038 224.863C229.93 233.152 230.232 250.398 230.232 250.398L232.798 247.54Z" fill="#D3E6EA"/>
</g>
<g style="mix-blend-mode:multiply" opacity="0.34">
<path d="M238.701 306.368C238.701 306.368 212.401 304.081 210.764 289.491C209.774 280.694 222.817 279.035 226.979 286.459C231.141 293.883 242.498 306.675 242.498 306.675L238.701 306.368Z" fill="#CDD6D9"/>
</g>
<g style="mix-blend-mode:multiply" opacity="0.34">
<path d="M231.003 267.511C231.003 267.511 205.281 273.506 199.31 260.129C195.705 252.064 209.959 245.999 216.164 251.764C222.369 257.529 234.738 266.654 234.738 266.654L231.003 267.511Z" fill="#CDD6D9"/>
</g>
<g style="mix-blend-mode:multiply" opacity="0.34">
<path d="M157.546 188.014C157.959 188.572 136 202.653 128.048 194.288C120.095 185.923 130.724 173.78 143.272 178.36C143.272 178.373 153.157 182.082 157.546 188.014Z" fill="#CDD6D9"/>
</g>
<g style="mix-blend-mode:multiply" opacity="0.34">
<path d="M192.293 205.644C192.293 205.644 178.425 219.105 163.71 213.675C148.995 208.244 164.914 189.144 189.37 203.483L192.293 205.644Z" fill="#CDD6D9"/>
</g>
<g style="mix-blend-mode:multiply" opacity="0.34">
<path d="M217.251 233.451C217.251 233.451 203.383 246.912 188.668 241.475C173.953 236.038 189.872 216.951 214.328 231.29L217.251 233.451Z" fill="#CDD6D9"/>
</g>
<g style="mix-blend-mode:multiply" opacity="0.34">
<path d="M205.013 215.85C205.013 215.85 216.329 200.13 209.058 186.07C201.787 172.009 185.228 190.559 202.509 213.201L205.013 215.85Z" fill="#CDD6D9"/>
</g>
<g style="mix-blend-mode:multiply" opacity="0.34">
<path d="M169.647 190.405C169.647 190.405 175.405 171.842 164.075 160.883C152.744 149.925 142.914 172.88 166.441 188.705L169.647 190.405Z" fill="#CDD6D9"/>
</g>
</g>
<path d="M332.383 150.009C332.527 149.814 337.611 150.009 337.611 150.009C337.611 150.009 331.743 156.046 329.438 158.046C324.43 162.403 320.564 159.608 320.564 159.608C320.564 159.608 314.999 156.568 310.754 149.319C308.119 144.822 306.221 144.153 306.221 144.153C306.221 144.153 303.531 145.715 301.894 144.251C300.256 142.787 300.353 140.905 300.855 140.368C301.357 139.831 305.56 141.511 305.505 139.42C305.45 137.328 305.106 135.628 305.994 136.206C306.881 136.785 306.881 140.814 306.881 140.814C306.881 140.814 320.089 151.549 320.543 151.849C325.593 155.132 332.383 150.009 332.383 150.009Z" fill="white" stroke="black" stroke-width="1.49" stroke-linecap="round" stroke-linejoin="round"/>
<path d="M238.708 206.822C221.356 206.822 204.394 201.608 189.967 191.84C175.54 182.071 164.295 168.187 157.655 151.942C151.014 135.698 149.277 117.823 152.662 100.578C156.047 83.3325 164.403 67.4918 176.672 55.0588C188.942 42.6258 204.574 34.1588 221.592 30.7285C238.61 27.2982 256.25 29.0588 272.281 35.7875C288.312 42.5162 302.014 53.9109 311.654 68.5305C321.294 83.1502 326.439 100.338 326.439 117.921C326.413 141.491 317.162 164.089 300.715 180.755C284.268 197.422 261.968 206.796 238.708 206.822ZM238.708 29.4455C221.439 29.4455 204.558 34.6345 190.2 44.3564C175.842 54.0782 164.651 67.8962 158.042 84.0631C151.434 100.23 149.705 118.019 153.074 135.182C156.443 152.345 164.758 168.11 176.969 180.483C189.18 192.857 204.737 201.283 221.674 204.697C238.611 208.111 256.166 206.359 272.12 199.662C288.075 192.966 301.711 181.626 311.305 167.076C320.899 152.526 326.019 135.42 326.019 117.921C325.994 94.464 316.787 71.9748 300.418 55.388C284.05 38.8012 261.856 29.4714 238.708 29.4455Z" fill="white" stroke="black" stroke-width="1.49" stroke-linecap="round" stroke-linejoin="round"/>
<path opacity="0.54" d="M324.244 122.996C324.241 107.392 320.083 92.0769 312.21 78.6657C304.337 65.2545 293.041 54.2434 279.51 46.7925C265.98 39.3417 250.716 35.7269 235.328 36.329C219.941 36.9312 204.998 41.728 192.075 50.2141C179.151 58.7002 168.726 70.5613 161.898 84.5478C155.069 98.5343 152.089 114.128 153.273 129.687C154.457 145.245 159.76 160.192 168.623 172.953C177.487 185.713 189.583 195.815 203.637 202.194H203.534L203.885 202.305H203.933C207.905 204.059 211.101 207.232 212.911 211.221C217.678 221.942 216.845 234.434 217.1 235.201H264.23C264.23 215.271 269.204 204.32 271.646 203.086C287.23 196.48 300.538 185.352 309.897 171.101C319.256 156.851 324.248 140.114 324.244 122.996Z" fill="white" stroke="black" stroke-width="1.49" stroke-linecap="round" stroke-linejoin="round"/>
<path d="M218.613 228.307H263.06C263.462 228.307 263.847 228.468 264.13 228.756C264.414 229.044 264.574 229.434 264.574 229.84V256.783C264.574 258.617 263.855 260.376 262.575 261.673C261.295 262.97 259.559 263.699 257.75 263.699H223.924C222.114 263.699 220.379 262.97 219.099 261.673C217.819 260.376 217.1 258.617 217.1 256.783V229.84C217.1 229.434 217.259 229.044 217.543 228.756C217.827 228.468 218.212 228.307 218.613 228.307Z" fill="white" stroke="black" stroke-width="1.49" stroke-linecap="round" stroke-linejoin="round"/>
<path d="M230.797 228.648L216.887 134.631C207.455 133.355 198.017 130.574 193.566 124.802C189.961 120.124 188.751 113.773 190.539 108.622C192.101 104.063 195.843 100.835 201.078 99.5596C202.416 99.1737 203.819 99.0773 205.197 99.2767C206.574 99.4761 207.894 99.9667 209.072 100.717C214.004 103.923 215.415 111.048 215.47 111.348V111.389L218.641 132.783C226.581 133.631 234.578 133.804 242.546 133.299H242.588C242.746 133.299 249.742 133.013 257.977 131.863C258.19 129.688 258.355 128.064 258.465 127.137C258.685 125.283 258.83 123.31 258.981 121.218C259.359 115.976 259.758 110.567 261.402 106.321C263.384 101.226 266.816 98.751 271.9 98.751C274.789 98.7589 277.618 99.59 280.063 101.149C282.508 102.709 284.471 104.933 285.728 107.569C288.521 113.09 288.293 119.511 285.157 123.923C281.366 129.263 269.898 132.135 259.827 133.683C257.605 156.805 251.469 227.791 251.4 228.586L249.398 228.404C249.467 227.603 255.507 157.663 257.77 133.982C249.955 135.056 243.413 135.328 242.684 135.377C234.775 135.914 226.835 135.769 218.951 134.944L232.785 228.356L230.797 228.648ZM203.899 101.226C203.108 101.233 202.321 101.334 201.553 101.525C195.726 102.968 193.38 106.545 192.438 109.298C190.897 113.808 191.956 119.399 195.148 123.54C199.124 128.691 207.751 131.264 216.57 132.498L213.488 111.71C213.413 111.334 212.078 105.074 207.985 102.418C206.767 101.625 205.346 101.21 203.899 101.226ZM271.907 100.773C262.496 100.773 261.733 111.229 260.997 121.344C260.845 123.435 260.694 125.457 260.474 127.353C260.371 128.21 260.226 129.639 260.04 131.536C269.603 130.065 280.183 127.409 283.526 122.703C286.23 118.904 286.395 113.32 283.946 108.475C282.853 106.177 281.145 104.236 279.017 102.874C276.888 101.512 274.425 100.784 271.907 100.773Z" fill="#04AC5C"/>
<path d="M322.635 392.794C322.149 392.769 321.69 392.565 321.342 392.221C320.993 391.877 320.781 391.417 320.743 390.926L301.261 189.465C301.202 188.922 301.355 188.378 301.686 187.948C302.018 187.519 302.502 187.237 303.036 187.164C303.299 187.138 303.565 187.166 303.818 187.246C304.07 187.325 304.305 187.455 304.507 187.628C304.71 187.801 304.876 188.013 304.997 188.252C305.117 188.49 305.19 188.751 305.21 189.018L324.692 390.48C324.75 391.022 324.598 391.566 324.266 391.996C323.934 392.426 323.45 392.707 322.917 392.78C322.823 392.792 322.729 392.797 322.635 392.794Z" fill="black"/>
<path d="M388.517 390.661C387.582 390.661 386.275 389.964 386.075 388.925L346.258 184.78C346.138 184.235 346.231 183.665 346.517 183.188C346.803 182.711 347.26 182.365 347.792 182.222C348.056 182.17 348.327 182.172 348.589 182.229C348.851 182.285 349.1 182.395 349.32 182.551C349.539 182.707 349.726 182.907 349.867 183.138C350.009 183.369 350.104 183.626 350.145 183.895L390.512 390.11C390.739 391.275 388.29 389.574 388.517 390.661Z" fill="black"/>
<path d="M364.13 273.332H311.078C310.807 273.369 310.532 273.347 310.271 273.268C310.01 273.188 309.768 273.053 309.563 272.871C309.358 272.689 309.193 272.465 309.08 272.213C308.968 271.961 308.909 271.688 308.909 271.412C308.909 271.135 308.968 270.862 309.08 270.611C309.193 270.359 309.358 270.135 309.563 269.953C309.768 269.771 310.01 269.636 310.271 269.556C310.532 269.476 310.807 269.454 311.078 269.491H364.13C364.401 269.454 364.676 269.476 364.937 269.556C365.198 269.636 365.439 269.771 365.645 269.953C365.85 270.135 366.015 270.359 366.128 270.611C366.24 270.862 366.299 271.135 366.299 271.412C366.299 271.688 366.24 271.961 366.128 272.213C366.015 272.465 365.85 272.689 365.645 272.871C365.439 273.053 365.198 273.188 364.937 273.268C364.676 273.347 364.401 273.369 364.13 273.332Z" fill="black"/>
<path d="M353.282 243.81H307.5C307.017 243.781 306.564 243.566 306.232 243.209C305.901 242.852 305.716 242.38 305.716 241.89C305.716 241.4 305.901 240.928 306.232 240.571C306.564 240.214 307.017 239.999 307.5 239.969H353.282C353.765 239.999 354.218 240.214 354.55 240.571C354.882 240.928 355.066 241.4 355.066 241.89C355.066 242.38 354.882 242.852 354.55 243.209C354.218 243.566 353.765 243.781 353.282 243.81Z" fill="black"/>
<path d="M367.99 301.628H314.07C313.567 301.628 313.084 301.425 312.727 301.064C312.371 300.703 312.171 300.214 312.171 299.704C312.171 299.193 312.371 298.704 312.727 298.343C313.084 297.982 313.567 297.78 314.07 297.78H367.99C368.493 297.78 368.976 297.982 369.332 298.343C369.688 298.704 369.888 299.193 369.888 299.704C369.888 300.214 369.688 300.703 369.332 301.064C368.976 301.425 368.493 301.628 367.99 301.628Z" fill="black"/>
<path d="M317.062 327.337C316.804 327.352 316.545 327.315 316.302 327.225C316.058 327.136 315.835 326.997 315.647 326.817C315.458 326.637 315.308 326.42 315.205 326.179C315.103 325.938 315.05 325.679 315.05 325.416C315.05 325.154 315.103 324.894 315.205 324.653C315.308 324.412 315.458 324.195 315.647 324.015C315.835 323.836 316.058 323.697 316.302 323.607C316.545 323.518 316.804 323.48 317.062 323.496H372.578C373.082 323.496 373.565 323.698 373.921 324.059C374.277 324.42 374.477 324.909 374.477 325.42C374.477 325.93 374.277 326.419 373.921 326.78C373.565 327.141 373.082 327.344 372.578 327.344L317.062 327.337Z" fill="black"/>
<path d="M378.618 357.179H319.897C319.631 357.207 319.363 357.179 319.109 357.095C318.855 357.011 318.622 356.875 318.423 356.693C318.225 356.512 318.066 356.291 317.958 356.044C317.849 355.797 317.793 355.529 317.793 355.259C317.793 354.988 317.849 354.721 317.958 354.474C318.066 354.227 318.225 354.005 318.423 353.824C318.622 353.643 318.855 353.506 319.109 353.423C319.363 353.339 319.631 353.31 319.897 353.338H378.618C378.884 353.31 379.152 353.339 379.406 353.423C379.66 353.506 379.893 353.643 380.092 353.824C380.29 354.005 380.449 354.227 380.557 354.474C380.666 354.721 380.722 354.988 380.722 355.259C380.722 355.529 380.666 355.797 380.557 356.044C380.449 356.291 380.29 356.512 380.092 356.693C379.893 356.875 379.66 357.011 379.406 357.095C379.152 357.179 378.884 357.207 378.618 357.179Z" fill="black"/>
<path d="M328.764 149.423C327.848 149.323 327.007 148.86 326.425 148.136C325.843 147.412 325.566 146.484 325.655 145.554L326.253 139.65C326.352 138.72 326.81 137.868 327.526 137.279C328.243 136.69 329.16 136.412 330.078 136.506C330.995 136.604 331.837 137.066 332.419 137.791C333.002 138.516 333.278 139.445 333.187 140.375L332.582 146.272C332.485 147.202 332.029 148.055 331.314 148.645C330.599 149.235 329.682 149.515 328.764 149.423Z" fill="white" stroke="black" stroke-width="1.49" stroke-linecap="round" stroke-linejoin="round"/>
<path d="M362.603 269.54L350.908 274.287C350.503 274.441 349.278 274.287 349.065 274.002C348.945 273.852 348.858 273.678 348.808 273.492C348.758 273.307 348.746 273.112 348.774 272.922C348.802 272.731 348.868 272.548 348.969 272.385C349.07 272.222 349.203 272.081 349.361 271.973C350.558 270.906 352.222 269.185 352.738 268.641C352.852 268.525 352.995 268.443 353.151 268.404L360.512 266.313C360.682 266.26 360.863 266.256 361.035 266.303C361.206 266.35 361.361 266.445 361.482 266.577L363.009 268.488C363.068 268.58 363.104 268.686 363.115 268.796C363.126 268.905 363.111 269.016 363.072 269.119C363.032 269.222 362.969 269.313 362.887 269.387C362.806 269.46 362.709 269.513 362.603 269.54Z" fill="white" stroke="black" stroke-width="1.49" stroke-linecap="round" stroke-linejoin="round"/>
<path d="M323.323 272.851L310.754 272.907C310.503 272.921 310.257 272.834 310.068 272.666C309.879 272.498 309.762 272.262 309.743 272.008C309.737 271.631 309.85 271.263 310.063 270.955C310.277 270.647 310.582 270.415 310.933 270.293C312.343 269.763 314.373 268.899 315.013 268.641C315.149 268.582 315.298 268.558 315.446 268.571L322.408 269.066C322.6 269.075 322.786 269.139 322.943 269.251C323.101 269.364 323.223 269.52 323.295 269.701L324.072 271.931C324.112 272.044 324.121 272.166 324.101 272.284C324.08 272.402 324.029 272.513 323.954 272.606C323.878 272.698 323.781 272.769 323.67 272.813C323.559 272.856 323.44 272.869 323.323 272.851Z" fill="white" stroke="black" stroke-width="1.49" stroke-linecap="round" stroke-linejoin="round"/>
<path d="M326.769 136.631C327.473 135.335 328.52 134.263 329.793 133.536C331.065 132.81 332.512 132.457 333.972 132.519C339.31 132.519 341.229 138.033 341.298 141.637C341.367 145.241 344.229 146.718 344.979 147.513C345.57 148.141 344.414 149.828 344.889 150.831C345.236 151.425 345.772 151.88 346.409 152.121C347.388 152.635 348.251 153.347 348.948 154.212C350.675 156.345 353.11 160.312 350.399 163.358C346.499 167.743 343.004 167.882 343.83 170.078C344.655 172.274 346.155 172.867 343.623 174.958C341.092 177.049 336.744 178.06 336.744 178.06L337.907 169.235L338.684 165.206L327.677 164.641C327.677 164.641 324.169 159.88 326.769 158.611C327.48 158.31 328.065 157.767 328.424 157.077C328.783 156.386 328.894 155.59 328.737 154.826L333.022 143.024C333.022 143.024 325.325 140.117 326.769 136.631Z" fill="#04AC5C" stroke="black" stroke-width="1.49" stroke-linecap="round" stroke-linejoin="round"/>
<path d="M329.879 250.76C329.879 250.76 326.597 260.966 324.513 264.521C322.428 268.076 323.316 269.652 323.316 269.652C323.316 269.652 316.209 271.45 314.951 270.948C312.13 269.826 315.116 268.599 315.116 268.599C316.058 268.392 316.946 267.985 317.721 267.403C318.495 266.821 319.139 266.079 319.608 265.225C321.066 262.395 320.874 249.234 320.874 249.234L329.879 250.76Z" fill="white" stroke="black" stroke-width="1.49" stroke-linecap="round" stroke-linejoin="round"/>
<path d="M357.554 245.323C357.554 245.323 359.191 256.581 358.992 260.959C358.792 265.337 360.925 266.403 360.925 266.403C360.925 266.403 354.782 271.45 353.358 271.325C351.424 271.15 352.731 268.648 352.731 268.648C352.731 268.648 355.408 265.86 355.07 264.04C354.472 260.722 348.012 245.323 348.012 245.323H357.554Z" fill="white" stroke="black" stroke-width="1.49" stroke-linecap="round" stroke-linejoin="round"/>
<path d="M323.942 187.854L318.239 222.514C317.746 225.575 318.02 228.713 319.037 231.639C320.729 236.714 321.149 248.314 320.626 250.126C320.241 251.444 322.139 251.757 322.139 251.757L329.521 252.845C330.503 251.642 331.108 250.17 331.26 248.616C331.412 247.063 331.104 245.499 330.374 244.124C330.161 243.274 330.053 242.401 330.051 241.524C330.119 240.541 331.523 236.853 328.971 227.847C327.56 222.87 335.637 213.87 335.637 213.87C335.637 213.87 343.995 205.505 342.516 198.743C341.037 191.981 323.942 187.854 323.942 187.854Z" fill="#D0D8DB" stroke="#04AC5C" stroke-width="1.49" stroke-linecap="round" stroke-linejoin="round"/>
<path d="M324.994 186.976L335.63 227.094C335.63 227.094 336.091 230.963 339.909 234.623C343.727 238.282 348.308 245.776 348.982 250.231C349.106 251.081 349.257 251.513 349.842 251.75C350.233 251.905 350.653 251.97 351.072 251.94C351.491 251.91 351.898 251.785 352.264 251.576L358.565 248.153C358.565 248.153 359.432 240.388 356.721 241.085L355.346 237.209C355.002 236.247 351.012 228.495 347.372 224.933C343.733 221.371 345.756 212.078 345.756 212.078C345.756 212.078 350.62 192.657 347.379 187.269C343.768 181.246 324.994 186.976 324.994 186.976Z" fill="#D0D8DB" stroke="#04AC5C" stroke-width="1.49" stroke-linecap="round" stroke-linejoin="round"/>
<path d="M322.353 189.569H348.157C347.366 186.61 345.819 183.914 343.672 181.755C341.884 179.959 340.522 177.775 339.688 175.369C338.854 172.962 338.57 170.395 338.856 167.861C339.406 163.783 341.869 160.395 339.221 155.969C336.572 151.542 333.642 153.278 331.358 155.969L322.325 166.648C322.325 166.648 322.016 171.779 325.228 175.153C328.441 178.527 322.311 189.046 322.311 189.046L322.353 189.569Z" fill="white" stroke="black" stroke-width="1.49" stroke-linecap="round" stroke-linejoin="round"/>
<path d="M331.894 156.987C332.052 156.771 335.967 163.107 335.967 163.107C335.967 163.107 331.715 166.893 328.998 168.921C322.807 173.557 319.202 170.636 319.202 170.636C319.202 170.636 313.079 167.22 308.402 159.085C305.505 154.059 303.442 153.285 303.442 153.285C303.442 153.285 300.484 155.035 298.681 153.397C296.879 151.759 296.975 149.639 297.532 149.033C298.09 148.426 302.712 150.336 302.657 147.987C302.602 145.638 302.217 143.721 303.194 144.369C304.171 145.018 304.191 149.535 304.191 149.535C304.191 149.535 318.741 161.595 319.236 161.922C324.767 165.61 331.894 156.987 331.894 156.987Z" fill="white" stroke="black" stroke-width="1.49" stroke-linecap="round" stroke-linejoin="round"/>
<path d="M188.042 342.527L189.088 348.57L193.133 347.936L193.848 346.131L192.534 341.258L188.042 342.527Z" fill="white" stroke="black" stroke-width="1.49" stroke-linecap="round" stroke-linejoin="round"/>
<path d="M122.235 339.118L120.171 343.774L121.884 345.308C121.884 345.308 125.324 345.308 125.186 345.175C125.049 345.043 126.61 341.118 126.61 341.118L122.235 339.118Z" fill="white" stroke="black" stroke-width="1.49" stroke-linecap="round" stroke-linejoin="round"/>
<path d="M193.064 341.892C193.064 341.892 190.704 344.597 188.042 343.642C185.38 342.687 175.804 317.41 174.545 312.795C173.286 308.18 156.349 287.044 156.349 287.044L171.036 262.646C171.036 262.646 182.394 288.655 187.547 307.574C190.661 318.881 192.507 330.508 193.05 342.234L193.064 341.892Z" fill="#D0D8DB" stroke="#04AC5C" stroke-width="1.49" stroke-linecap="round" stroke-linejoin="round"/>
<path d="M170.397 254.03C170.397 254.03 147.647 255.299 143.884 254.664C140.121 254.03 139.33 272.468 137.761 286.298C136.691 294.937 134.03 303.296 129.919 310.941C129.919 310.941 123.329 328.591 122.352 338.922C122.876 339.678 123.587 340.281 124.412 340.672C125.237 341.063 126.149 341.229 127.057 341.153C130.353 340.993 144.943 313.806 144.943 313.806C144.943 313.806 151.066 302.834 154.203 295.207C157.34 287.581 164.873 274.699 168.01 270.112C171.147 265.525 171.773 262.165 171.773 262.165C171.773 262.165 170.08 254.664 170.397 254.03Z" fill="#D0D8DB" stroke="#04AC5C" stroke-width="1.49" stroke-linecap="round" stroke-linejoin="round"/>
<path d="M191.633 189.081C191.64 188.995 191.64 188.909 191.633 188.823V188.628C191.633 187.833 190.945 187.638 190.422 187.645C186.253 187.736 186.68 192.114 185.504 194.031L185.407 194.205L174.703 215.815C174.38 216.742 173.327 217.293 172.811 217.697L169.86 217.418C169.362 217.484 168.904 217.732 168.574 218.115C165.953 221.245 155.29 231.89 156.329 233.87C156.448 234.086 156.529 234.322 156.569 234.567L156.638 235.006C156.706 235.426 156.898 235.816 157.19 236.122C157.482 236.429 157.859 236.638 158.271 236.721C158.683 236.804 159.111 236.758 159.496 236.589C159.882 236.419 160.207 236.135 160.429 235.773C161.199 234.504 161.935 233.04 162.582 232.043C162.753 231.777 162.982 231.554 163.252 231.391C163.521 231.228 163.824 231.129 164.137 231.102L178.143 230.405C178.769 230.356 180.151 230.147 180.495 229.611C185.311 222.228 186.928 214.03 187.244 212.762C187.244 212.685 187.705 210.775 187.712 210.67L189.184 194.721C189.349 192.769 189.755 192.866 191.007 190.956C191.34 190.381 191.553 189.743 191.633 189.081Z" fill="white" stroke="black" stroke-width="1.49" stroke-linecap="round" stroke-linejoin="round"/>
<path d="M136.2 220.137C136.565 218.826 138.745 212.308 146.794 208.286C146.944 208.215 147.112 208.196 147.274 208.231C147.435 208.267 147.581 208.354 147.688 208.481L154.306 215.452C154.898 216.073 155.785 215.529 155.785 214.539V211.277C155.785 210.482 156.384 209.917 156.968 210.161L162.857 212.552C162.915 212.573 162.968 212.604 163.015 212.643C163.524 212.999 168.828 212.999 173.534 216.498C173.981 216.833 173.375 219.363 173.534 220.158L172.433 229.694C171.695 230.281 170.874 230.751 169.998 231.088C169.415 231.347 168.92 231.772 168.572 232.312C168.225 232.852 168.042 233.483 168.044 234.128C168.044 234.441 168.25 235.654 168.195 235.856L170.947 256.651C170.837 257.062 161.853 258.624 161.522 258.686L150.034 260.903C149.847 260.928 149.657 260.89 149.494 260.794C149.331 260.698 149.204 260.55 149.133 260.373L136.936 235.466C136.851 235.29 136.805 235.097 136.798 234.901L136.186 220.59C136.166 220.439 136.171 220.286 136.2 220.137Z" fill="white" stroke="black" stroke-width="1.49" stroke-linecap="round" stroke-linejoin="round"/>
<path d="M158.214 266.034C156.108 264.64 140.94 261.656 134.06 252.907C131.309 249.422 130.435 242.2 130.58 236.33C131.164 212.197 147.661 208.795 147.661 208.795C148.562 208.53 148.156 205.588 148.314 205.052C148.314 204.982 148.005 204.522 148.018 204.452L149.532 201.252C149.571 201.072 149.631 200.896 149.711 200.73L151.499 196.958C151.687 196.564 151.987 196.235 152.361 196.016C152.736 195.797 153.167 195.698 153.598 195.731L160.642 196.275C161.198 196.32 161.716 196.582 162.086 197.006C162.455 197.43 162.648 197.983 162.623 198.548L162.369 204.257C162.356 204.568 162.277 204.873 162.138 205.15C161.999 205.428 161.803 205.673 161.564 205.867L155.964 210.391C155.407 210.838 155.909 211.27 155.964 211.988V215.473C155.964 217.502 155.104 217.502 154.815 217.265L145.872 226.92L145.735 227.073C134.907 240.931 153.797 258.101 159.328 261.928C159.328 261.928 162.974 264.932 163.648 265.755C163.992 266.173 166.352 269.45 165.024 272.726C163.696 276.002 160.979 271.332 160.979 269.582C160.979 267.832 158.214 266.034 158.214 266.034Z" fill="white" stroke="black" stroke-width="1.49" stroke-linecap="round" stroke-linejoin="round"/>
<path d="M158.406 197.363L161.522 197.495C162.492 197.537 164.068 196.889 164.549 196.031C165.547 194.282 165.925 189.973 160.828 189.36C153.384 188.468 157.388 194.177 150.908 193.543C144.427 192.908 148.954 197.37 148.156 199.949C147.358 202.528 145.404 203.525 147.028 204.864C148.651 206.202 151.94 204.752 150.798 202.716C149.284 200.047 151.713 197.948 153.088 199.231C154.464 200.514 152.93 203.567 152.93 203.567C152.93 203.567 151.389 206.495 152.07 207.687C153.001 209.014 154.024 210.272 155.132 211.451C155.379 211.726 155.682 211.945 156.019 212.092C157.608 212.79 162.286 214.588 161.921 211.66C161.705 210.174 161.852 208.656 162.348 207.241C162.574 206.626 162.565 205.948 162.321 205.34C162.078 204.732 161.619 204.239 161.034 203.957C159.978 203.506 158.85 203.256 157.704 203.218C154.113 202.981 155.063 200.339 156.04 198.673C156.279 198.257 156.626 197.915 157.043 197.684C157.46 197.453 157.931 197.342 158.406 197.363Z" fill="#04AC5C" stroke="black" stroke-width="1.49" stroke-linecap="round" stroke-linejoin="round"/>
<path d="M128.894 348.089C128.894 348.089 131.948 350.181 132.189 351.275C132.629 353.366 129.08 353.61 126.239 351.589C121.987 348.57 119.586 347.776 118.995 347.295C118.403 346.814 120.13 342.241 120.625 343.161C121.045 343.955 122.001 346.186 125.496 344.116C126.365 345.65 127.519 346.999 128.894 348.089Z" fill="white" stroke="black" stroke-width="1.49" stroke-linecap="round" stroke-linejoin="round"/>
<path d="M197.927 347.775C197.927 347.775 201.532 347.936 202.199 348.849C203.445 350.543 200.762 351.86 197.295 351.589C194.543 351.372 189.727 351.491 188.971 351.282C188.214 351.073 188.379 345.935 188.916 346.834C189.769 348.229 192.747 347.775 193.786 345.831C193.786 345.831 195.912 347.929 197.927 347.775Z" fill="white" stroke="black" stroke-width="1.49" stroke-linecap="round" stroke-linejoin="round"/>
<path d="M134.948 217.934C134.817 218.185 146.34 226.885 146.34 226.885L155.572 217.788L147.083 208.76C147.083 208.76 138.484 211.137 134.948 217.934Z" fill="white" stroke="black" stroke-width="1.49" stroke-linecap="round" stroke-linejoin="round"/>
</svg>
